# xmcd CD database file
#
# Track frame offsets:
#	150
#	19774
#	36779
#	66298
#	78887
#
# Disc length: 1775 seconds
#
# Revision: 3
# Processed by: cddbd v1.5.2PL0 Copyright (c) Steve Scherf et al.
# Submitted via: CDex 1.70beta2
#
DISCID=3406ed05
DTITLE=Tigran Hamasyan - For Gyumri
DYEAR=2018
DGENRE=Jazz
TTITLE0=Aragatz
TTITLE1=Rays of Light
TTITLE2=The American
TTITLE3=Self Portrait
TTITLE4=Revolving - Prayer
EXTD=YEAR: 2018
EXTT0=
EXTT1=
EXTT2=
EXTT3=
EXTT4=
PLAYORDER=
